<mxfile host="app.diagrams.net" modified="2023-06-28T08:58:35.298Z" agent="Mozilla/5.0 (Windows NT 10.0; Win64; x64; rv:109.0) Gecko/20100101 Firefox/114.0" etag="1RwDu-5LAVWAw1mBCL-h" version="21.5.1" type="device">
  <diagram name="Page-1" id="tYsXhdKwSejEWXgVoPCO">
    <mxGraphModel dx="1050" dy="566" grid="1" gridSize="10" guides="1" tooltips="1" connect="1" arrows="1" fold="1" page="1" pageScale="1" pageWidth="720" pageHeight="480" math="0" shadow="0">
      <root>
        <mxCell id="0" />
        <mxCell id="1" parent="0" />
        <mxCell id="-qi37eZQb5XYfB7vcLxd-3" value="&lt;font style=&quot;font-size: 69px;&quot; face=&quot;Georgia&quot;&gt;Welcome to Gust!&lt;/font&gt;" style="text;strokeColor=none;align=center;fillColor=none;html=1;verticalAlign=middle;whiteSpace=wrap;rounded=0;" vertex="1" parent="1">
          <mxGeometry x="40" y="150" width="640" height="30" as="geometry" />
        </mxCell>
        <mxCell id="-qi37eZQb5XYfB7vcLxd-5" value="&lt;font style=&quot;font-size: 29px;&quot; face=&quot;Georgia&quot;&gt;By Malachi Haskew&lt;br style=&quot;font-size: 29px;&quot;&gt;&lt;/font&gt;" style="text;strokeColor=none;align=center;fillColor=none;html=1;verticalAlign=middle;whiteSpace=wrap;rounded=0;fontSize=29;" vertex="1" parent="1">
          <mxGeometry x="40" y="225" width="640" height="30" as="geometry" />
        </mxCell>
      </root>
    </mxGraphModel>
  </diagram>
</mxfile>
